<?xml version="1.0" encoding="utf-8"?>
<!-- Generator: Adobe Illustrator 24.3.0, SVG Export Plug-In . SVG Version: 6.00 Build 0)  -->
<svg version="1.1" id="Layer_1" xmlns="http://www.w3.org/2000/svg" xmlns:xlink="http://www.w3.org/1999/xlink" x="0px" y="0px"
	 viewBox="0 0 36 36" style="enable-background:new 0 0 36 36;" xml:space="preserve">
<style type="text/css">
	.st0{fill:#FF014F;}
</style>
<g>
	<path class="st0" d="M31.5,19.9h-27C3.1,19.9,2,19,2,18l0,0c0-1,1.1-1.9,2.5-1.9h27c1.4,0,2.5,0.8,2.5,1.9l0,0
		C34,19,32.9,19.9,31.5,19.9z"/>
</g>
<g>
	<path class="st0" d="M31.5,28.9h-27C3.1,28.9,2,28,2,27l0,0c0-1,1.1-1.9,2.5-1.9h27c1.4,0,2.5,0.8,2.5,1.9l0,0
		C34,28,32.9,28.9,31.5,28.9z"/>
</g>
<g>
	<path class="st0" d="M31.5,10.9h-27C3.1,10.9,2,10,2,9l0,0c0-1,1.1-1.9,2.5-1.9h27C32.9,7.1,34,8,34,9l0,0
		C34,10,32.9,10.9,31.5,10.9z"/>
</g>
</svg>
